HIERARCHY
ROOT Hips
{
 OFFSET 0.000000 0.000000 0.000000
 CHANNELS 6 Xposition Yposition Zposition Yrotation Xrotation Zrotation
 JOINT Chest
 {
  OFFSET 0.000000 9.585900 0.002600
  CHANNELS 3 Yrotation Xrotation Zrotation
  JOINT Chest2
  {
   OFFSET 0.000000 9.601200 -0.005300
   CHANNELS 3 Yrotation Xrotation Zrotation
   JOINT Chest3
   {
    OFFSET 0.000000 9.561800 0.000000
    CHANNELS 3 Yrotation Xrotation Zrotation
    JOINT Chest4
    {
     OFFSET 0.000000 9.552100 0.000000
     CHANNELS 3 Yrotation Xrotation Zrotation
     JOINT Neck
     {
      OFFSET 0.000000 14.453000 0.000000
      CHANNELS 3 Yrotation Xrotation Zrotation
      JOINT Head
      {
       OFFSET 0.000000 8.936500 -0.011300
       CHANNELS 3 Yrotation Xrotation Zrotation
       End Site
       {
        OFFSET 0.000000 17.073600 -0.006000
       }
      }
     }
     JOINT RightCollar
     {
      OFFSET -2.921100 9.558500 0.000000
      CHANNELS 3 Yrotation Xrotation Zrotation
      JOINT RightShoulder
      {
       OFFSET -13.519700 0.000000 0.000000
       CHANNELS 3 Yrotation Xrotation Zrotation
       JOINT RightElbow
       {
        OFFSET 0.000000 -29.696600 0.000000
        CHANNELS 3 Yrotation Xrotation Zrotation
        JOINT RightWrist
        {
         OFFSET 0.000000 -24.004700 0.000000
         CHANNELS 3 Yrotation Xrotation Zrotation
         End Site
         {
          OFFSET 0.000000 -17.728500 0.000000
         }
        }
       }
      }
     }
     JOINT LeftCollar
     {
      OFFSET 2.921100 9.558500 0.000000
      CHANNELS 3 Yrotation Xrotation Zrotation
      JOINT LeftShoulder
      {
       OFFSET 13.519700 0.000000 0.000000
       CHANNELS 3 Yrotation Xrotation Zrotation
       JOINT LeftElbow
       {
        OFFSET 0.000000 -29.696600 0.000000
        CHANNELS 3 Yrotation Xrotation Zrotation
        JOINT LeftWrist
        {
         OFFSET 0.000000 -24.004700 0.000000
         CHANNELS 3 Yrotation Xrotation Zrotation
         End Site
         {
          OFFSET 0.000000 -17.728500 0.000000
         }
        }
       }
      }
     }
    }
   }
  }
 }
 JOINT RightHip
 {
  OFFSET -7.771700 -0.012900 -0.001300
  CHANNELS 3 Yrotation Xrotation Zrotation
  JOINT RightKnee
  {
   OFFSET 0.000000 -40.869800 0.001200
   CHANNELS 3 Yrotation Xrotation Zrotation
   JOINT RightAnkle
   {
    OFFSET 0.000000 -39.717900 0.002100
    CHANNELS 3 Yrotation Xrotation Zrotation
    JOINT RightToe
    {
     OFFSET 0.000000 -4.965400 11.033500
     CHANNELS 3 Yrotation Xrotation Zrotation
     End Site
     {
      OFFSET 0.000000 -1.423100 5.872300
     }
    }
   }
  }
 }
 JOINT LeftHip
 {
  OFFSET 7.771700 -0.012900 -0.001300
  CHANNELS 3 Yrotation Xrotation Zrotation
  JOINT LeftKnee
  {
   OFFSET 0.000000 -40.869800 0.001200
   CHANNELS 3 Yrotation Xrotation Zrotation
   JOINT LeftAnkle
   {
    OFFSET 0.000000 -39.717900 0.002100
    CHANNELS 3 Yrotation Xrotation Zrotation
    JOINT LeftToe
    {
     OFFSET 0.000000 -4.965400 11.033500
     CHANNELS 3 Yrotation Xrotation Zrotation
     End Site
     {
      OFFSET 0.000000 -1.423100 5.872300
     }
    }
   }
  }
 }
}
MOTION
Frames: 15
Frame Time: 0.008333
-11.448060 55.297454 18.249454 -178.261104 -17.786857 -1.917927 -0.026533 16.419546 0.257076 -0.001216 1.661916 0.050243 0.012092 2.779098 0.093862 0.103375 14.572380 0.496892 0.947021 12.927209 5.589936 -0.253183 -12.044675 5.773376 1.871453 0.902099 1.846652 4.168682 -3.714139 -11.054668 -93.668789 -67.907457 125.705741 -13.322044 -19.145548 -1.854401 -6.095802 -0.878952 1.669038 -0.193574 -11.811875 9.294888 57.620724 -55.245166 -102.469848 6.796311 -10.336490 6.451009 -1.713538 -57.122863 12.362014 -95.783091 87.566431 -100.282436 -11.266669 -22.413195 14.681504 0.083072 -0.177787 0.034628 10.900726 -53.638856 -6.105543 110.117739 77.148611 107.460576 -8.206438 -23.592086 2.124097 0.102920 0.303684 0.043120
-11.448181 55.298073 18.250269 -178.260505 -17.790419 -1.915833 -0.020987 16.424830 0.260806 -0.002435 1.660866 0.050522 0.009593 2.779722 0.091822 0.110468 14.585082 0.502709 0.950420 12.914493 5.585854 -0.245170 -12.047190 5.766210 1.864582 0.887618 1.845816 4.168788 -3.714057 -11.056730 -93.622089 -67.895829 125.695804 -13.304488 -19.153414 -1.883191 -6.107001 -0.893519 1.664839 -0.189280 -11.830353 9.317414 57.620467 -55.232857 -102.464114 6.780362 -10.359173 6.457096 -1.715335 -57.116479 12.367394 -95.652578 87.564880 -100.153081 -11.292983 -22.403066 14.684533 0.077359 -0.174972 0.035475 10.900002 -53.637400 -6.106030 110.114135 77.146873 107.456502 -8.208331 -23.584951 2.123748 0.100482 0.299613 0.042722
-11.448865 55.299299 18.248871 -178.255101 -17.803581 -1.913515 -0.023631 16.441595 0.260201 0.004029 1.667419 0.056476 0.010069 2.780437 0.090610 0.101713 14.588580 0.502194 0.962793 12.906842 5.580688 -0.241065 -12.053725 5.759750 1.863188 0.872260 1.846471 4.179147 -3.712878 -11.053234 -93.608750 -67.907452 125.693509 -13.321792 -19.163251 -1.879046 -6.110536 -0.908188 1.661115 -0.185185 -11.846132 9.340162 57.622076 -55.219338 -102.464114 6.764075 -10.385970 6.472752 -1.717432 -57.100775 12.369806 -95.575798 87.560015 -100.074459 -11.334887 -22.387474 14.693295 0.070650 -0.172551 0.033461 10.897055 -53.619818 -6.101905 110.103092 77.152688 107.444721 -8.220547 -23.588774 2.124633 0.112849 0.305231 0.047909
-11.449380 55.300190 18.248074 -178.258603 -17.808266 -1.910594 -0.020337 16.447837 0.259079 0.001926 1.670977 0.058781 0.012656 2.780389 0.089217 0.098778 14.597335 0.507728 0.975183 12.901379 5.572347 -0.237211 -12.061043 5.752713 1.867076 0.857266 1.844752 4.218897 -3.704320 -11.050137 -93.631787 -67.923996 125.694710 -13.332116 -19.171066 -1.871803 -6.114177 -0.920849 1.652102 -0.178491 -11.855091 9.354967 57.666231 -55.246754 -102.452164 6.789216 -10.387101 6.454292 -1.721466 -57.093879 12.377854 -95.484464 87.561086 -99.984219 -11.362039 -22.369903 14.699139 0.070421 -0.161864 0.029570 10.902045 -53.614368 -6.102387 110.107460 77.153725 107.448247 -8.218835 -23.588743 2.125222 0.111554 0.304612 0.048127
-11.449280 55.301143 18.246446 -178.262787 -17.812784 -1.912397 -0.019677 16.457433 0.265291 0.004962 1.667415 0.055670 0.007170 2.797453 0.098925 0.100751 14.585496 0.500121 0.981599 12.901825 5.569939 -0.235020 -12.067382 5.746177 1.869299 0.850879 1.846286 4.229963 -3.702317 -11.055091 -93.621984 -67.932271 125.693511 -13.344497 -19.151311 -1.827043 -6.117969 -0.924846 1.649209 -0.171576 -11.864747 9.365464 57.704351 -55.262637 -102.443644 6.815161 -10.376537 6.431637 -1.744698 -57.085058 12.390901 -95.349709 87.542603 -99.857556 -11.296333 -22.358040 14.688879 0.081894 -0.167352 0.025078 10.903040 -53.609874 -6.093619 110.120933 77.157224 107.461760 -8.217883 -23.591916 2.122997 0.114360 0.304365 0.051438
-11.449585 55.301842 18.244660 -178.267223 -17.813064 -1.912606 -0.018506 16.471626 0.275053 0.005185 1.662291 0.051937 0.008372 2.797680 0.098047 0.099633 14.583599 0.499133 0.992458 12.917373 5.565415 -0.236709 -12.089129 5.741803 1.869893 0.845850 1.848413 4.242519 -3.702565 -11.061486 -93.612485 -67.938271 125.688904 -13.343749 -19.133653 -1.817560 -6.124874 -0.931654 1.652678 -0.142910 -11.886047 9.386836 57.723205 -55.254639 -102.441788 6.838473 -10.367423 6.419122 -1.753369 -57.082713 12.392419 -95.333824 87.546538 -99.851063 -11.228329 -22.344457 14.677986 0.069411 -0.178535 0.020317 10.905515 -53.606305 -6.088724 110.115898 77.160225 107.456354 -8.217851 -23.600435 2.122973 0.116575 0.310737 0.052133
-11.449856 55.302282 18.242764 -178.268048 -17.809016 -1.914777 -0.020032 16.474454 0.279575 0.004407 1.670052 0.056220 0.008303 2.791389 0.094112 0.097923 14.596446 0.504495 0.996830 12.911259 5.554956 -0.218571 -12.069463 5.725027 1.871988 0.828237 1.844385 4.284163 -3.697601 -11.081711 -93.615747 -67.934422 125.672833 -13.338209 -19.135173 -1.821979 -6.126406 -0.951535 1.653661 -0.127980 -11.892569 9.385947 57.760522 -55.279100 -102.441326 6.814164 -10.363857 6.458733 -1.761899 -57.084729 12.395957 -95.306609 87.547442 -99.829097 -11.187311 -22.329327 14.673276 0.073634 -0.184495 0.018518 10.907364 -53.609734 -6.085708 110.122971 77.162885 107.465158 -8.220443 -23.604431 2.123823 0.120737 0.312871 0.052836
-11.449779 55.302701 18.240083 -178.269163 -17.805657 -1.919408 -0.023610 16.479736 0.285973 0.004169 1.670083 0.056415 0.007836 2.791399 0.094356 0.101788 14.590256 0.501239 0.997103 12.925712 5.554379 -0.211802 -12.060863 5.715982 1.869813 0.829256 1.850906 4.306033 -3.698632 -11.095818 -93.578857 -67.935622 125.642308 -13.327112 -19.139431 -1.829591 -6.130669 -0.951222 1.663628 -0.114083 -11.898525 9.383784 57.791751 -55.297226 -102.444171 6.793104 -10.359527 6.485010 -1.774744 -57.085046 12.403217 -95.268083 87.546263 -99.794428 -11.150448 -22.314932 14.669669 0.079543 -0.188468 0.017166 10.904659 -53.613910 -6.076564 110.146320 77.168835 107.488600 -8.219859 -23.607946 2.126695 0.123730 0.311800 0.052674
-11.450492 55.302901 18.237315 -178.273268 -17.799714 -1.918407 -0.027426 16.482938 0.287071 0.005730 1.667716 0.056210 0.005783 2.792855 0.095360 0.101297 14.590150 0.502156 1.000737 12.936013 5.548048 -0.205537 -12.048949 5.705764 1.874407 0.823048 1.847904 4.321508 -3.698582 -11.104680 -93.541996 -67.931109 125.612016 -13.314867 -19.125569 -1.825836 -6.133583 -0.955797 1.669469 -0.094215 -11.906558 9.401347 57.814921 -55.278677 -102.467962 6.754585 -10.368587 6.519471 -1.781140 -57.088456 12.403403 -95.224901 87.542551 -99.751380 -11.143732 -22.299830 14.674495 0.075697 -0.188719 0.013000 10.914097 -53.619526 -6.079002 110.162691 77.169273 107.506689 -8.223081 -23.609303 2.128569 0.120553 0.308226 0.053169
-11.449969 55.302239 18.236894 -178.282687 -17.776739 -1.922356 -0.024852 16.468041 0.294666 0.010994 1.661616 0.054546 0.003971 2.794449 0.096203 0.088559 14.597430 0.514832 1.011635 12.934580 5.529198 -0.202451 -12.042158 5.700576 1.888662 0.814300 1.833789 4.331308 -3.696606 -11.113050 -93.498312 -67.923771 125.579895 -13.301775 -19.125033 -1.818361 -6.129753 -0.968972 1.662704 -0.067658 -11.916861 9.441815 57.882903 -55.270742 -102.503080 6.759558 -10.368171 6.519575 -1.788247 -57.110329 12.413930 -95.113933 87.539016 -99.637230 -11.147622 -22.285026 14.675607 0.082583 -0.182566 0.016517 10.921007 -53.645838 -6.072451 110.181830 77.171380 107.526533 -8.229271 -23.610847 2.131297 0.122525 0.306514 0.053473
-11.450657 55.302365 18.233766 -178.289438 -17.769562 -1.919585 -0.028257 16.467773 0.294902 0.012929 1.662641 0.052871 0.007564 2.789601 0.095488 0.079278 14.597087 0.520599 1.021733 12.940694 5.519069 -0.200183 -12.034415 5.695951 1.893326 0.818759 1.841239 4.342471 -3.698307 -11.134376 -93.444786 -67.914316 125.541947 -13.296802 -19.138139 -1.816229 -6.123846 -0.972649 1.665136 -0.053555 -11.921087 9.440709 57.927385 -55.298405 -102.506769 6.761408 -10.378618 6.520774 -1.796134 -57.117585 12.417136 -95.099870 87.525894 -99.620156 -11.166803 -22.260342 14.684652 0.061292 -0.188840 0.012787 10.922441 -53.654677 -6.066742 110.226298 77.173444 107.559967 -8.221408 -23.608546 2.141942 0.116012 0.296689 0.047140
-11.452964 55.302728 18.229843 -178.292953 -17.767219 -1.907129 -0.039656 16.472545 0.284272 0.002662 1.667809 0.057450 0.019596 2.782160 0.090633 0.069656 14.595443 0.522359 1.025878 12.972728 5.509579 -0.183759 -12.032780 5.681150 1.903536 0.819434 1.837064 4.345394 -3.698747 -11.142987 -93.383469 -67.904220 125.498471 -13.310314 -19.144990 -1.811083 -6.116557 -0.974692 1.677096 -0.018216 -11.934728 9.445929 58.008769 -55.336355 -102.532862 6.802681 -10.371780 6.499314 -1.784615 -57.121606 12.415439 -95.075662 87.505387 -99.578019 -11.323140 -22.226663 14.717240 0.057026 -0.183805 0.013490 10.938885 -53.653652 -6.080659 110.246976 77.171340 107.573187 -8.225661 -23.606928 2.150742 0.108453 0.290138 0.046143
-11.453669 55.302710 18.227390 -178.301110 -17.756272 -1.901179 -0.042182 16.468961 0.282706 0.002075 1.667215 0.057619 0.012348 2.780276 0.091759 0.070529 14.594146 0.522251 1.034496 12.974532 5.499229 -0.178702 -11.998019 5.667741 1.911044 0.821485 1.832387 4.343700 -3.701194 -11.148140 -93.353250 -67.899927 125.481658 -13.310859 -19.145872 -1.812070 -6.107743 -0.977529 1.674579 0.010111 -11.948137 9.465348 58.065087 -55.349468 -102.555928 6.816414 -10.376221 6.497231 -1.791155 -57.130498 12.425942 -95.030622 87.502835 -99.533342 -11.387054 -22.207618 14.729693 0.049796 -0.179636 0.013148 10.952897 -53.663400 -6.087653 110.253658 77.168640 107.579049 -8.231978 -23.605807 2.154436 0.109346 0.286846 0.044655
-11.451916 55.302610 18.225673 -178.308534 -17.741854 -1.908552 -0.037357 16.459439 0.295437 0.001128 1.668700 0.059549 0.004439 2.784341 0.094881 0.073758 14.587782 0.520715 1.036002 12.992965 5.487208 -0.162703 -11.946770 5.639137 1.915309 0.820605 1.824723 4.342220 -3.702302 -11.150292 -93.322638 -67.896066 125.459795 -13.310448 -19.146352 -1.813970 -6.102021 -0.982100 1.666886 0.028913 -11.958315 9.485575 58.112099 -55.354392 -102.575294 6.818261 -10.384643 6.507639 -1.802227 -57.142152 12.430935 -95.004611 87.515496 -99.516612 -11.300876 -22.201972 14.713600 0.078306 -0.181646 0.015246 10.946017 -53.677917 -6.069323 110.257231 77.170340 107.579457 -8.230543 -23.611886 2.157279 0.106793 0.291481 0.041706
-11.450974 55.302558 18.223848 -178.313257 -17.730297 -1.910535 -0.033597 16.449179 0.300203 -0.000207 1.672380 0.063197 0.004092 2.784902 0.096907 0.071465 14.586331 0.523076 1.036604 13.012196 5.473815 -0.150272 -11.915371 5.615418 1.915603 0.818977 1.817020 4.339878 -3.701902 -11.151798 -93.255708 -67.885712 125.399066 -13.330514 -19.124936 -1.811248 -6.113436 -0.984858 1.671466 0.054553 -11.965002 9.482259 58.156249 -55.371113 -102.582280 6.819516 -10.392886 6.519358 -1.815100 -57.149441 12.432362 -94.978033 87.525687 -99.499821 -11.229187 -22.204748 14.698644 0.097829 -0.182112 0.016094 10.941415 -53.690627 -6.057243 110.270441 77.170549 107.587275 -8.234226 -23.611745 2.159308 0.113243 0.292731 0.045533
